<svg width="173" height="48" viewBox="0 0 173 48" fill="none" xmlns="http://www.w3.org/2000/svg">
<g clip-path="url(#clip0_0_4876)">
<rect width="173" height="48" rx="24" fill="#BA4270"/>
<path d="M31.7875 30.15C31.2525 30.15 30.7275 30.0825 30.2125 29.9475C29.6975 29.8125 29.2275 29.61 28.8025 29.34C28.3775 29.07 28.025 28.7325 27.745 28.3275C27.47 27.9225 27.305 27.4475 27.25 26.9025H29.4925C29.5675 27.2325 29.71 27.51 29.92 27.735C30.13 27.96 30.395 28.1325 30.715 28.2525C31.035 28.3725 31.39 28.4325 31.78 28.4325C32.18 28.4325 32.545 28.3825 32.875 28.2825C33.205 28.1825 33.47 28.0325 33.67 27.8325C33.87 27.6275 33.97 27.3725 33.97 27.0675C33.97 26.7925 33.8875 26.5675 33.7225 26.3925C33.5625 26.2175 33.345 26.075 33.07 25.965C32.795 25.855 32.4825 25.765 32.1325 25.695L30.2575 25.3125C29.4375 25.1575 28.7875 24.8325 28.3075 24.3375C27.8275 23.8375 27.58 23.1725 27.565 22.3425C27.56 21.6625 27.74 21.075 28.105 20.58C28.475 20.08 28.975 19.695 29.605 19.425C30.24 19.155 30.95 19.02 31.735 19.02C32.67 19.02 33.455 19.1675 34.09 19.4625C34.73 19.7525 35.215 20.1475 35.545 20.6475C35.88 21.1425 36.0525 21.695 36.0625 22.305H33.865C33.825 21.925 33.71 21.6225 33.52 21.3975C33.33 21.1725 33.085 21.01 32.785 20.91C32.49 20.81 32.1525 20.76 31.7725 20.76C31.4825 20.76 31.2175 20.7925 30.9775 20.8575C30.7425 20.9225 30.5425 21.015 30.3775 21.135C30.2125 21.25 30.085 21.3875 29.995 21.5475C29.905 21.7075 29.86 21.8875 29.86 22.0875C29.86 22.4025 29.965 22.6575 30.175 22.8525C30.385 23.0475 30.7775 23.2075 31.3525 23.3325L33.2125 23.715C33.8775 23.845 34.405 24.0375 34.795 24.2925C35.19 24.5475 35.485 24.835 35.68 25.155C35.88 25.475 36.01 25.8025 36.07 26.1375C36.135 26.4675 36.1675 26.7725 36.1675 27.0525C36.1675 27.6375 35.9825 28.165 35.6125 28.635C35.2475 29.1 34.7375 29.47 34.0825 29.745C33.4275 30.015 32.6625 30.15 31.7875 30.15ZM40.9571 22.095C41.6071 22.095 42.1671 22.2275 42.6371 22.4925C43.1121 22.7575 43.4846 23.115 43.7546 23.565C44.0296 24.015 44.1871 24.5175 44.2271 25.0725H42.4046C42.3696 24.8675 42.2971 24.665 42.1871 24.465C42.0771 24.26 41.9221 24.0925 41.7221 23.9625C41.5221 23.8275 41.2721 23.76 40.9721 23.76C40.4621 23.76 40.0471 23.9575 39.7271 24.3525C39.4121 24.7425 39.2546 25.3375 39.2546 26.1375C39.2546 26.8925 39.4096 27.4925 39.7196 27.9375C40.0296 28.3775 40.4621 28.5975 41.0171 28.5975C41.3121 28.5975 41.5571 28.525 41.7521 28.38C41.9521 28.235 42.1071 28.0625 42.2171 27.8625C42.3271 27.6575 42.3971 27.4675 42.4271 27.2925H44.2046C44.1696 27.8275 44.0146 28.3125 43.7396 28.7475C43.4646 29.1775 43.0896 29.52 42.6146 29.775C42.1446 30.025 41.5921 30.15 40.9571 30.15C40.2371 30.15 39.5946 29.99 39.0296 29.67C38.4646 29.35 38.0196 28.8925 37.6946 28.2975C37.3746 27.6975 37.2146 26.9825 37.2146 26.1525C37.2146 25.3525 37.3696 24.6475 37.6796 24.0375C37.9896 23.4275 38.4246 22.9525 38.9846 22.6125C39.5496 22.2675 40.2071 22.095 40.9571 22.095ZM45.6198 30V18.855H47.7948V23.3625C47.9198 23.1825 48.0773 23.005 48.2673 22.83C48.4573 22.65 48.6948 22.5 48.9798 22.38C49.2648 22.26 49.6123 22.2 50.0223 22.2C50.5173 22.2 50.9673 22.2975 51.3723 22.4925C51.7823 22.6825 52.1098 22.96 52.3548 23.325C52.6048 23.69 52.7298 24.135 52.7298 24.66V30H50.5323V24.9825C50.5323 24.6325 50.4048 24.365 50.1498 24.18C49.8998 23.99 49.5948 23.895 49.2348 23.895C48.9998 23.895 48.7723 23.9375 48.5523 24.0225C48.3323 24.1075 48.1523 24.2375 48.0123 24.4125C47.8773 24.5825 47.8098 24.795 47.8098 25.05V30H45.6198ZM56.196 26.625C56.191 27.02 56.2535 27.365 56.3835 27.66C56.5135 27.95 56.701 28.175 56.946 28.335C57.196 28.49 57.496 28.5675 57.846 28.5675C58.221 28.5675 58.5485 28.4875 58.8285 28.3275C59.1135 28.1675 59.311 27.905 59.421 27.54H61.3935C61.3085 28.09 61.0885 28.56 60.7335 28.95C60.3835 29.34 59.9585 29.6375 59.4585 29.8425C58.9585 30.0475 58.4385 30.15 57.8985 30.15C57.1335 30.15 56.4585 29.99 55.8735 29.67C55.2935 29.345 54.841 28.8875 54.516 28.2975C54.191 27.7075 54.0285 27.0125 54.0285 26.2125C54.0285 25.4375 54.176 24.74 54.471 24.12C54.766 23.495 55.1935 23.0025 55.7535 22.6425C56.3185 22.2775 56.996 22.095 57.786 22.095C58.576 22.095 59.2385 22.2625 59.7735 22.5975C60.3135 22.9275 60.7185 23.39 60.9885 23.985C61.2635 24.575 61.401 25.2575 61.401 26.0325V26.625H56.196ZM56.1885 25.32H59.3535C59.3535 25.01 59.296 24.725 59.181 24.465C59.066 24.205 58.891 24 58.656 23.85C58.426 23.7 58.136 23.625 57.786 23.625C57.446 23.625 57.156 23.7075 56.916 23.8725C56.681 24.0325 56.501 24.2425 56.376 24.5025C56.251 24.7625 56.1885 25.035 56.1885 25.32ZM65.686 30.15C64.646 30.15 63.836 29.7925 63.256 29.0775C62.676 28.3575 62.386 27.3575 62.386 26.0775C62.386 25.2675 62.5035 24.565 62.7385 23.97C62.9735 23.375 63.321 22.915 63.781 22.59C64.241 22.26 64.8035 22.095 65.4685 22.095C65.7485 22.095 66.0085 22.1275 66.2485 22.1925C66.4935 22.2525 66.716 22.3375 66.916 22.4475C67.116 22.5575 67.291 22.685 67.441 22.83C67.591 22.975 67.7135 23.13 67.8085 23.295V18.855H70.006V30H68.416L68.1685 28.41C68.0985 28.625 68.001 28.835 67.876 29.04C67.751 29.245 67.591 29.4325 67.396 29.6025C67.201 29.7675 66.961 29.9 66.676 30C66.396 30.1 66.066 30.15 65.686 30.15ZM66.166 28.575C66.716 28.575 67.126 28.3825 67.396 27.9975C67.671 27.6125 67.8085 26.9625 67.8085 26.0475C67.8035 25.5175 67.741 25.0775 67.621 24.7275C67.501 24.3775 67.321 24.1175 67.081 23.9475C66.846 23.7725 66.546 23.685 66.181 23.685C65.706 23.685 65.311 23.8675 64.996 24.2325C64.681 24.5925 64.5235 25.1975 64.5235 26.0475C64.5235 26.9125 64.671 27.55 64.966 27.96C65.261 28.37 65.661 28.575 66.166 28.575ZM74.6302 30.15C74.2702 30.15 73.9152 30.095 73.5652 29.985C73.2202 29.875 72.9052 29.7125 72.6202 29.4975C72.3352 29.2825 72.1052 29.0175 71.9302 28.7025C71.7602 28.3875 71.6752 28.0225 71.6752 27.6075V22.245H73.8652V27.33C73.8652 27.69 73.9827 27.985 74.2177 28.215C74.4527 28.445 74.7977 28.56 75.2527 28.56C75.6827 28.56 76.0227 28.45 76.2727 28.23C76.5277 28.005 76.6552 27.6925 76.6552 27.2925V22.245H78.8227V30H77.1727L76.9177 28.4625C76.8277 28.9175 76.6577 29.2675 76.4077 29.5125C76.1627 29.7525 75.8802 29.9175 75.5602 30.0075C75.2452 30.1025 74.9352 30.15 74.6302 30.15ZM83.0093 30.135C82.4393 30.135 81.9868 30.0675 81.6518 29.9325C81.3168 29.7975 81.0693 29.62 80.9093 29.4C80.7493 29.175 80.6468 28.9275 80.6018 28.6575C80.5568 28.3825 80.5343 28.105 80.5343 27.825V18.855H82.6793V27.555C82.6793 27.84 82.7393 28.0725 82.8593 28.2525C82.9843 28.4275 83.2168 28.535 83.5568 28.575L83.9243 28.5975V29.9475C83.7743 29.9975 83.6218 30.04 83.4668 30.075C83.3118 30.115 83.1593 30.135 83.0093 30.135ZM87.0089 26.625C87.0039 27.02 87.0664 27.365 87.1964 27.66C87.3264 27.95 87.5139 28.175 87.7589 28.335C88.0089 28.49 88.3089 28.5675 88.6589 28.5675C89.0339 28.5675 89.3614 28.4875 89.6414 28.3275C89.9264 28.1675 90.1239 27.905 90.2339 27.54H92.2064C92.1214 28.09 91.9014 28.56 91.5464 28.95C91.1964 29.34 90.7714 29.6375 90.2714 29.8425C89.7714 30.0475 89.2514 30.15 88.7114 30.15C87.9464 30.15 87.2714 29.99 86.6864 29.67C86.1064 29.345 85.6539 28.8875 85.3289 28.2975C85.0039 27.7075 84.8414 27.0125 84.8414 26.2125C84.8414 25.4375 84.9889 24.74 85.2839 24.12C85.5789 23.495 86.0064 23.0025 86.5664 22.6425C87.1314 22.2775 87.8089 22.095 88.5989 22.095C89.3889 22.095 90.0514 22.2625 90.5864 22.5975C91.1264 22.9275 91.5314 23.39 91.8014 23.985C92.0764 24.575 92.2139 25.2575 92.2139 26.0325V26.625H87.0089ZM87.0014 25.32H90.1664C90.1664 25.01 90.1089 24.725 89.9939 24.465C89.8789 24.205 89.7039 24 89.4689 23.85C89.2389 23.7 88.9489 23.625 88.5989 23.625C88.2589 23.625 87.9689 23.7075 87.7289 23.8725C87.4939 24.0325 87.3139 24.2425 87.1889 24.5025C87.0639 24.7625 87.0014 25.035 87.0014 25.32ZM98.8883 30.15C98.3933 30.15 97.9483 30.0575 97.5533 29.8725C97.1583 29.6875 96.8458 29.42 96.6158 29.07C96.3858 28.715 96.2708 28.285 96.2708 27.78C96.2708 26.93 96.5883 26.285 97.2233 25.845C97.8583 25.4 98.8608 25.17 100.231 25.155L101.198 25.14V24.675C101.198 24.32 101.093 24.0475 100.883 23.8575C100.678 23.6625 100.358 23.5675 99.9233 23.5725C99.6033 23.5775 99.2983 23.6525 99.0083 23.7975C98.7233 23.9425 98.5283 24.195 98.4233 24.555H96.6008C96.6308 23.995 96.7933 23.535 97.0883 23.175C97.3833 22.81 97.7833 22.54 98.2883 22.365C98.7983 22.185 99.3758 22.095 100.021 22.095C100.816 22.095 101.453 22.195 101.933 22.395C102.413 22.59 102.761 22.8725 102.976 23.2425C103.191 23.6075 103.298 24.0425 103.298 24.5475V30H101.468L101.288 28.665C101.023 29.225 100.691 29.6125 100.291 29.8275C99.8958 30.0425 99.4283 30.15 98.8883 30.15ZM99.6233 28.71C99.8233 28.71 100.016 28.675 100.201 28.605C100.391 28.53 100.558 28.4325 100.703 28.3125C100.853 28.1875 100.973 28.0475 101.063 27.8925C101.153 27.7375 101.198 27.5775 101.198 27.4125V26.265L100.411 26.28C100.046 26.285 99.7058 26.33 99.3908 26.415C99.0758 26.495 98.8208 26.6275 98.6258 26.8125C98.4358 26.9975 98.3408 27.2475 98.3408 27.5625C98.3408 27.9225 98.4658 28.205 98.7158 28.41C98.9658 28.61 99.2683 28.71 99.6233 28.71ZM108.462 19.155C108.517 19.155 108.67 19.155 108.92 19.155C109.175 19.155 109.472 19.155 109.812 19.155C110.157 19.155 110.5 19.1575 110.84 19.1625C111.185 19.1625 111.472 19.165 111.702 19.17C113.017 19.2 114.09 19.435 114.92 19.875C115.75 20.315 116.357 20.93 116.742 21.72C117.132 22.51 117.327 23.445 117.327 24.525C117.327 25.65 117.122 26.6225 116.712 27.4425C116.302 28.2575 115.675 28.8875 114.83 29.3325C113.99 29.7775 112.922 30 111.627 30H108.462V19.155ZM110.667 20.925V28.23H111.672C112.292 28.23 112.855 28.11 113.36 27.87C113.87 27.63 114.277 27.2375 114.582 26.6925C114.887 26.1475 115.04 25.42 115.04 24.51C115.04 23.665 114.905 22.98 114.635 22.455C114.365 21.925 113.98 21.5375 113.48 21.2925C112.98 21.0475 112.387 20.925 111.702 20.925H110.667ZM120.665 26.625C120.66 27.02 120.723 27.365 120.853 27.66C120.983 27.95 121.17 28.175 121.415 28.335C121.665 28.49 121.965 28.5675 122.315 28.5675C122.69 28.5675 123.018 28.4875 123.298 28.3275C123.583 28.1675 123.78 27.905 123.89 27.54H125.863C125.778 28.09 125.558 28.56 125.203 28.95C124.853 29.34 124.428 29.6375 123.928 29.8425C123.428 30.0475 122.908 30.15 122.368 30.15C121.603 30.15 120.928 29.99 120.343 29.67C119.763 29.345 119.31 28.8875 118.985 28.2975C118.66 27.7075 118.498 27.0125 118.498 26.2125C118.498 25.4375 118.645 24.74 118.94 24.12C119.235 23.495 119.663 23.0025 120.223 22.6425C120.788 22.2775 121.465 22.095 122.255 22.095C123.045 22.095 123.708 22.2625 124.243 22.5975C124.783 22.9275 125.188 23.39 125.458 23.985C125.733 24.575 125.87 25.2575 125.87 26.0325V26.625H120.665ZM120.658 25.32H123.823C123.823 25.01 123.765 24.725 123.65 24.465C123.535 24.205 123.36 24 123.125 23.85C122.895 23.7 122.605 23.625 122.255 23.625C121.915 23.625 121.625 23.7075 121.385 23.8725C121.15 24.0325 120.97 24.2425 120.845 24.5025C120.72 24.7625 120.658 25.035 120.658 25.32ZM127.275 30V22.245H129.42V23.34C129.655 23 129.97 22.7075 130.365 22.4625C130.765 22.2175 131.268 22.095 131.873 22.095C132.138 22.095 132.408 22.1425 132.683 22.2375C132.958 22.3325 133.215 22.4725 133.455 22.6575C133.7 22.8375 133.898 23.065 134.048 23.34C134.298 22.985 134.625 22.69 135.03 22.455C135.44 22.215 135.895 22.095 136.395 22.095C136.685 22.095 136.978 22.1425 137.273 22.2375C137.573 22.3325 137.848 22.4875 138.098 22.7025C138.348 22.9175 138.548 23.205 138.698 23.565C138.853 23.92 138.93 24.36 138.93 24.885V30H136.74V25.155C136.74 24.845 136.678 24.5975 136.553 24.4125C136.433 24.2225 136.278 24.0875 136.088 24.0075C135.903 23.9225 135.705 23.88 135.495 23.88C135.3 23.88 135.103 23.92 134.903 24C134.703 24.075 134.533 24.1975 134.393 24.3675C134.253 24.5375 134.183 24.76 134.183 25.035V30H132V24.96C132 24.725 131.938 24.5275 131.813 24.3675C131.688 24.2075 131.53 24.0875 131.34 24.0075C131.155 23.9225 130.965 23.88 130.77 23.88C130.57 23.88 130.37 23.9225 130.17 24.0075C129.97 24.0875 129.803 24.215 129.668 24.39C129.533 24.56 129.465 24.775 129.465 25.035V30H127.275ZM143.923 30.15C143.163 30.15 142.5 29.9875 141.935 29.6625C141.375 29.3375 140.94 28.8775 140.63 28.2825C140.325 27.6875 140.173 26.9825 140.173 26.1675C140.173 25.3525 140.325 24.64 140.63 24.03C140.94 23.42 141.375 22.945 141.935 22.605C142.5 22.265 143.165 22.095 143.93 22.095C144.695 22.095 145.358 22.2625 145.918 22.5975C146.478 22.9275 146.91 23.3975 147.215 24.0075C147.52 24.6175 147.673 25.3375 147.673 26.1675C147.673 26.9475 147.523 27.6375 147.223 28.2375C146.928 28.8325 146.5 29.3 145.94 29.64C145.385 29.98 144.713 30.15 143.923 30.15ZM143.93 28.5225C144.315 28.5225 144.625 28.41 144.86 28.185C145.095 27.96 145.265 27.665 145.37 27.3C145.48 26.93 145.535 26.5275 145.535 26.0925C145.535 25.6825 145.485 25.295 145.385 24.93C145.29 24.565 145.125 24.27 144.89 24.045C144.655 23.82 144.335 23.7075 143.93 23.7075C143.545 23.7075 143.233 23.815 142.993 24.03C142.758 24.24 142.585 24.5275 142.475 24.8925C142.365 25.2525 142.31 25.6525 142.31 26.0925C142.31 26.4975 142.36 26.8875 142.46 27.2625C142.56 27.6325 142.728 27.935 142.963 28.17C143.198 28.405 143.52 28.5225 143.93 28.5225Z" fill="#FBFCFE"/>
</g>
<defs>
<clipPath id="clip0_0_4876">
<rect width="173" height="48" fill="white"/>
</clipPath>
</defs>
</svg>
