<svg width="768" height="271" viewBox="0 0 768 271" fill="none" xmlns="http://www.w3.org/2000/svg">
<path d="M865 -205C865 57.0591 652.559 269.5 390.5 269.5C128.441 269.5 -84 57.0591 -84 -205C-84 -467.059 128.441 -679.5 390.5 -679.5C652.559 -679.5 865 -467.059 865 -205Z" fill="#36536B" fill-opacity="0.08"/>
<path d="M865 -205C865 57.0591 652.559 269.5 390.5 269.5C128.441 269.5 -84 57.0591 -84 -205C-84 -467.059 128.441 -679.5 390.5 -679.5C652.559 -679.5 865 -467.059 865 -205Z" fill="black" fill-opacity="0.2"/>
<path d="M865 -205C865 57.0591 652.559 269.5 390.5 269.5C128.441 269.5 -84 57.0591 -84 -205C-84 -467.059 128.441 -679.5 390.5 -679.5C652.559 -679.5 865 -467.059 865 -205Z" fill="black" fill-opacity="0.2"/>
<path d="M865 -205C865 57.0591 652.559 269.5 390.5 269.5C128.441 269.5 -84 57.0591 -84 -205C-84 -467.059 128.441 -679.5 390.5 -679.5C652.559 -679.5 865 -467.059 865 -205Z" fill="black" fill-opacity="0.2"/>
<path d="M865 -205C865 57.0591 652.559 269.5 390.5 269.5C128.441 269.5 -84 57.0591 -84 -205C-84 -467.059 128.441 -679.5 390.5 -679.5C652.559 -679.5 865 -467.059 865 -205Z" fill="black" fill-opacity="0.2"/>
<path d="M865 -205C865 57.0591 652.559 269.5 390.5 269.5C128.441 269.5 -84 57.0591 -84 -205C-84 -467.059 128.441 -679.5 390.5 -679.5C652.559 -679.5 865 -467.059 865 -205Z" fill="black" fill-opacity="0.2"/>
<path d="M865 -205C865 57.0591 652.559 269.5 390.5 269.5C128.441 269.5 -84 57.0591 -84 -205C-84 -467.059 128.441 -679.5 390.5 -679.5C652.559 -679.5 865 -467.059 865 -205Z" fill="black" fill-opacity="0.2"/>
<path d="M390.5 270C652.835 270 865.5 57.3353 865.5 -205C865.5 -467.335 652.835 -680 390.5 -680C128.165 -680 -84.5 -467.335 -84.5 -205C-84.5 57.3353 128.165 270 390.5 270Z" stroke="black" stroke-opacity="0.1"/>
</svg>
