<svg width="206" height="221" viewBox="0 0 206 221" fill="none" xmlns="http://www.w3.org/2000/svg">
<g filter="url(#filter0_d_0_4948)">
<rect x="5" y="5" width="176" height="191" rx="5" fill="#FBFCFE"/>
</g>
<g clip-path="url(#clip0_0_4948)">
<path d="M38.5975 123V113.601H41.776C42.4476 113.601 43.0456 113.714 43.57 113.939C44.0943 114.164 44.506 114.498 44.805 114.94C45.1083 115.382 45.26 115.926 45.26 116.571C45.26 117.195 45.1191 117.728 44.8375 118.17C44.5601 118.612 44.1723 118.948 43.674 119.178C43.1756 119.408 42.5971 119.522 41.9385 119.522H39.8325V123H38.5975ZM39.826 118.508H41.9125C42.5581 118.508 43.0825 118.329 43.4855 117.969C43.8885 117.609 44.09 117.12 44.09 116.5C44.09 115.876 43.882 115.404 43.466 115.083C43.05 114.762 42.5126 114.602 41.854 114.602H39.826V118.508ZM48.2598 123.13C47.8265 123.13 47.443 123.054 47.1093 122.902C46.7757 122.746 46.5135 122.523 46.3228 122.233C46.1365 121.943 46.0433 121.592 46.0433 121.18C46.0433 120.435 46.3033 119.88 46.8233 119.516C47.3433 119.152 48.1775 118.957 49.3258 118.931L50.5283 118.898V118.372C50.5283 117.96 50.4048 117.635 50.1578 117.397C49.9108 117.154 49.5273 117.033 49.0073 117.033C48.6217 117.037 48.2815 117.128 47.9868 117.306C47.6965 117.484 47.508 117.774 47.4213 118.177H46.3618C46.3878 117.739 46.5113 117.371 46.7323 117.072C46.9533 116.769 47.261 116.539 47.6553 116.383C48.054 116.227 48.5242 116.149 49.0658 116.149C49.6508 116.149 50.1362 116.231 50.5218 116.396C50.9118 116.561 51.2022 116.803 51.3928 117.124C51.5878 117.445 51.6853 117.839 51.6853 118.307V123H50.6583L50.5738 121.739C50.3138 122.263 49.9823 122.627 49.5793 122.831C49.1807 123.03 48.7408 123.13 48.2598 123.13ZM48.6238 122.265C48.8492 122.265 49.0723 122.224 49.2933 122.142C49.5187 122.06 49.7245 121.949 49.9108 121.81C50.0972 121.667 50.2445 121.509 50.3528 121.336C50.4655 121.158 50.524 120.976 50.5283 120.79V119.639L49.5273 119.659C49.016 119.668 48.587 119.72 48.2403 119.815C47.898 119.91 47.6402 120.06 47.4668 120.263C47.2978 120.467 47.2133 120.734 47.2133 121.063C47.2133 121.44 47.3433 121.735 47.6033 121.947C47.8677 122.159 48.2078 122.265 48.6238 122.265ZM54.0859 125.145C53.6916 125.145 53.4208 125.117 53.2734 125.061C53.1261 125.004 53.0524 124.976 53.0524 124.976V124.196L53.7349 124.209C53.9863 124.218 54.1943 124.2 54.3589 124.157C54.5236 124.114 54.6558 124.055 54.7554 123.982C54.8551 123.908 54.9309 123.826 54.9829 123.735C55.0393 123.644 55.0848 123.557 55.1194 123.475L55.3534 122.837L52.7274 116.279H53.9429L55.9254 121.466L57.8949 116.279H59.0714L56.2374 123.507C56.0641 123.932 55.8691 124.263 55.6524 124.502C55.4401 124.74 55.2018 124.907 54.9374 125.002C54.6774 125.097 54.3936 125.145 54.0859 125.145ZM60.2546 123V116.279H61.4116V117.254C61.5979 116.959 61.8536 116.701 62.1786 116.48C62.5036 116.259 62.9261 116.149 63.4461 116.149C63.6887 116.149 63.9357 116.19 64.1871 116.272C64.4427 116.355 64.6767 116.478 64.8891 116.643C65.1014 116.808 65.2661 117.009 65.3831 117.247C65.5911 116.918 65.8727 116.654 66.2281 116.454C66.5834 116.251 66.9842 116.149 67.4306 116.149C67.6646 116.149 67.9094 116.186 68.1651 116.259C68.4207 116.329 68.6569 116.454 68.8736 116.636C69.0946 116.814 69.2744 117.063 69.4131 117.384C69.5517 117.7 69.6211 118.108 69.6211 118.606V123H68.4121V118.723C68.4121 118.316 68.3471 118.001 68.2171 117.78C68.0871 117.555 67.9159 117.397 67.7036 117.306C67.4956 117.215 67.2724 117.169 67.0341 117.169C66.8261 117.169 66.6051 117.211 66.3711 117.293C66.1371 117.375 65.9377 117.514 65.7731 117.709C65.6084 117.904 65.5261 118.17 65.5261 118.508V123H64.3301V118.372C64.3301 118.108 64.2586 117.887 64.1156 117.709C63.9769 117.531 63.8014 117.397 63.5891 117.306C63.3811 117.215 63.1731 117.169 62.9651 117.169C62.7354 117.169 62.5036 117.215 62.2696 117.306C62.0399 117.397 61.8449 117.542 61.6846 117.741C61.5286 117.936 61.4506 118.192 61.4506 118.508V123H60.2546ZM72.2606 119.919C72.2606 120.344 72.3299 120.729 72.4686 121.076C72.6116 121.418 72.8261 121.691 73.1121 121.895C73.4024 122.099 73.7643 122.2 74.1976 122.2C74.6266 122.2 74.9949 122.101 75.3026 121.901C75.6146 121.702 75.8139 121.414 75.9006 121.037H77.0381C76.9558 121.492 76.7738 121.875 76.4921 122.188C76.2104 122.499 75.8703 122.736 75.4716 122.896C75.0729 123.052 74.6569 123.13 74.2236 123.13C73.5953 123.13 73.0428 122.994 72.5661 122.72C72.0894 122.447 71.7168 122.055 71.4481 121.544C71.1794 121.033 71.0451 120.419 71.0451 119.704C71.0451 118.998 71.1664 118.378 71.4091 117.845C71.6518 117.312 72.0028 116.896 72.4621 116.597C72.9258 116.298 73.4826 116.149 74.1326 116.149C74.7653 116.149 75.3004 116.285 75.7381 116.558C76.1758 116.831 76.5073 117.217 76.7326 117.715C76.9623 118.209 77.0771 118.797 77.0771 119.477V119.919H72.2606ZM72.2671 119.106H75.9201C75.9201 118.721 75.8551 118.374 75.7251 118.066C75.5951 117.754 75.3958 117.51 75.1271 117.332C74.8628 117.15 74.5291 117.059 74.1261 117.059C73.7058 117.059 73.3569 117.161 73.0796 117.364C72.8066 117.564 72.6008 117.822 72.4621 118.138C72.3278 118.45 72.2628 118.773 72.2671 119.106ZM78.6278 123V116.279H79.7913V117.254C79.8996 117.068 80.0491 116.892 80.2398 116.727C80.4348 116.563 80.6688 116.431 80.9418 116.331C81.2191 116.231 81.5376 116.181 81.8973 116.181C82.322 116.181 82.712 116.266 83.0673 116.435C83.427 116.604 83.713 116.868 83.9253 117.228C84.142 117.583 84.2503 118.043 84.2503 118.606V123H83.0478V118.723C83.0478 118.199 82.9091 117.811 82.6318 117.559C82.3588 117.304 82.0035 117.176 81.5658 117.176C81.2625 117.176 80.9786 117.226 80.7143 117.325C80.45 117.421 80.2355 117.568 80.0708 117.767C79.9061 117.962 79.8238 118.209 79.8238 118.508V123H78.6278ZM89.128 117.156H87.6135V121.336C87.6135 121.574 87.6373 121.75 87.685 121.862C87.737 121.971 87.8215 122.04 87.9385 122.07C88.0598 122.101 88.2245 122.116 88.4325 122.116H89.167V122.922C89.0846 122.952 88.959 122.978 88.79 123C88.6253 123.022 88.4195 123.033 88.1725 123.033C87.7088 123.033 87.3491 122.97 87.0935 122.844C86.8378 122.718 86.658 122.532 86.554 122.285C86.4543 122.038 86.4045 121.735 86.4045 121.375V117.156H85.3125V116.279H86.437L86.7295 114.322H87.6135V116.272H89.128V117.156ZM96.1575 123.13C95.5378 123.13 94.9962 122.998 94.5325 122.733C94.0688 122.465 93.7092 122.073 93.4535 121.557C93.1978 121.041 93.07 120.411 93.07 119.665C93.07 118.963 93.1892 118.348 93.4275 117.819C93.6658 117.291 94.0147 116.881 94.474 116.591C94.9377 116.296 95.4988 116.149 96.1575 116.149C96.7772 116.149 97.3145 116.285 97.7695 116.558C98.2288 116.827 98.5842 117.224 98.8355 117.748C99.0868 118.272 99.2125 118.911 99.2125 119.665C99.2125 120.35 99.0955 120.952 98.8615 121.472C98.6318 121.992 98.2895 122.4 97.8345 122.694C97.3838 122.985 96.8248 123.13 96.1575 123.13ZM96.1575 122.181C96.5605 122.181 96.9007 122.079 97.178 121.875C97.4553 121.672 97.6655 121.379 97.8085 120.998C97.9515 120.617 98.023 120.164 98.023 119.639C98.023 119.158 97.9602 118.727 97.8345 118.346C97.7088 117.96 97.5073 117.655 97.23 117.429C96.957 117.204 96.5995 117.091 96.1575 117.091C95.7502 117.091 95.4057 117.193 95.124 117.397C94.8423 117.596 94.6278 117.887 94.4805 118.268C94.3375 118.649 94.266 119.106 94.266 119.639C94.266 120.112 94.331 120.541 94.461 120.926C94.591 121.312 94.7947 121.618 95.072 121.843C95.3493 122.068 95.7112 122.181 96.1575 122.181ZM104.228 116.279V117.156H102.596V123H101.387V117.156H99.9704V116.279H101.387V115.239C101.387 114.706 101.524 114.301 101.797 114.023C102.07 113.742 102.477 113.601 103.019 113.601H104.286L104.293 114.452H103.285C103.012 114.452 102.826 114.526 102.726 114.673C102.627 114.821 102.577 115.044 102.577 115.343V116.279H104.228ZM112.11 123.13C110.984 123.13 110.069 122.905 109.367 122.454C108.665 121.999 108.262 121.299 108.158 120.354L110.134 120.315C110.238 120.744 110.461 121.072 110.804 121.297C111.15 121.518 111.584 121.628 112.104 121.628C112.416 121.628 112.691 121.579 112.929 121.479C113.172 121.375 113.363 121.236 113.501 121.063C113.64 120.885 113.709 120.684 113.709 120.458C113.709 120.112 113.599 119.854 113.378 119.685C113.157 119.512 112.817 119.373 112.357 119.269L110.817 118.938C110.102 118.794 109.528 118.511 109.094 118.086C108.665 117.657 108.446 117.083 108.438 116.363C108.433 115.774 108.592 115.265 108.912 114.836C109.237 114.403 109.677 114.069 110.232 113.835C110.791 113.601 111.417 113.484 112.11 113.484C112.821 113.484 113.434 113.612 113.95 113.867C114.47 114.119 114.868 114.459 115.146 114.888C115.427 115.313 115.564 115.783 115.555 116.298L113.638 116.331C113.577 115.915 113.438 115.588 113.222 115.349C113.005 115.111 112.645 114.992 112.143 114.992C111.883 114.992 111.651 115.02 111.447 115.076C111.244 115.133 111.068 115.213 110.921 115.317C110.773 115.417 110.661 115.536 110.583 115.674C110.509 115.813 110.472 115.969 110.472 116.142C110.472 116.415 110.563 116.632 110.745 116.792C110.932 116.948 111.28 117.094 111.792 117.228L113.306 117.598C114.16 117.802 114.775 118.151 115.152 118.645C115.534 119.139 115.724 119.739 115.724 120.445C115.724 120.987 115.575 121.459 115.276 121.862C114.981 122.265 114.563 122.577 114.021 122.798C113.48 123.02 112.843 123.13 112.11 123.13ZM111.298 112.255H112.942V113.945H111.298V112.255ZM111.265 122.551H112.903V124.242H111.265V122.551ZM120.287 123.143C119.702 123.143 119.156 123.03 118.649 122.805C118.142 122.58 117.728 122.263 117.407 121.856C117.087 121.444 116.907 120.963 116.868 120.413H118.675C118.753 120.777 118.926 121.074 119.195 121.303C119.464 121.529 119.802 121.641 120.209 121.641C120.66 121.641 121.054 121.535 121.392 121.323C121.734 121.111 121.99 120.773 122.159 120.309C122.332 119.845 122.393 119.239 122.341 118.489C122.22 118.719 122.051 118.92 121.834 119.093C121.622 119.262 121.372 119.395 121.086 119.49C120.8 119.581 120.482 119.626 120.131 119.626C119.494 119.626 118.928 119.507 118.434 119.269C117.945 119.026 117.559 118.684 117.277 118.242C117 117.796 116.861 117.267 116.861 116.656C116.861 116.041 117.009 115.492 117.303 115.011C117.598 114.53 118.01 114.153 118.538 113.88C119.067 113.607 119.687 113.471 120.397 113.471C121.195 113.471 121.882 113.662 122.458 114.043C123.039 114.42 123.483 114.957 123.79 115.655C124.102 116.348 124.258 117.165 124.258 118.105C124.258 119.228 124.098 120.164 123.777 120.913C123.461 121.659 123.006 122.218 122.412 122.59C121.819 122.959 121.11 123.143 120.287 123.143ZM120.456 118.118C120.72 118.118 120.976 118.06 121.223 117.943C121.474 117.822 121.68 117.67 121.84 117.488C122.001 117.306 122.081 117.117 122.081 116.922C122.085 116.502 122.018 116.142 121.879 115.843C121.745 115.54 121.554 115.308 121.307 115.148C121.065 114.988 120.781 114.907 120.456 114.907C120.157 114.907 119.89 114.977 119.656 115.115C119.422 115.254 119.238 115.449 119.104 115.7C118.97 115.952 118.902 116.242 118.902 116.571C118.902 117.061 119.045 117.442 119.331 117.715C119.617 117.984 119.992 118.118 120.456 118.118ZM125.467 123V122.064V121.583C125.467 121.106 125.556 120.695 125.734 120.348C125.911 119.997 126.145 119.694 126.436 119.438C126.73 119.178 127.051 118.95 127.398 118.755C127.749 118.56 128.1 118.376 128.451 118.203C128.802 118.03 129.122 117.856 129.413 117.683C129.707 117.505 129.944 117.308 130.121 117.091C130.299 116.875 130.388 116.619 130.388 116.324C130.388 115.947 130.256 115.64 129.991 115.401C129.731 115.163 129.374 115.044 128.919 115.044C128.446 115.044 128.046 115.18 127.716 115.453C127.387 115.726 127.183 116.138 127.105 116.688H125.292C125.3 116.09 125.439 115.549 125.708 115.063C125.981 114.574 126.388 114.186 126.93 113.9C127.471 113.614 128.152 113.471 128.971 113.471C129.673 113.471 130.277 113.59 130.784 113.828C131.296 114.067 131.69 114.398 131.967 114.823C132.245 115.248 132.383 115.744 132.383 116.311C132.383 116.784 132.297 117.191 132.123 117.533C131.95 117.876 131.72 118.168 131.434 118.411C131.148 118.654 130.834 118.866 130.492 119.048C130.149 119.23 129.807 119.399 129.465 119.555C129.127 119.711 128.815 119.871 128.529 120.036C128.243 120.196 128.013 120.378 127.84 120.582C127.666 120.786 127.58 121.03 127.58 121.316V121.401H132.37V123H125.467ZM137.084 113.471C138.202 113.471 139.084 113.889 139.729 114.725C140.375 115.557 140.698 116.756 140.698 118.32C140.698 119.876 140.379 121.069 139.742 121.901C139.105 122.729 138.219 123.143 137.084 123.143C135.944 123.143 135.053 122.729 134.412 121.901C133.775 121.074 133.457 119.882 133.457 118.326C133.457 117.286 133.604 116.405 133.899 115.681C134.193 114.957 134.611 114.409 135.153 114.036C135.695 113.659 136.338 113.471 137.084 113.471ZM137.084 121.589C137.643 121.589 138.052 121.34 138.312 120.842C138.572 120.339 138.702 119.501 138.702 118.326C138.702 117.126 138.57 116.266 138.306 115.746C138.041 115.226 137.632 114.966 137.077 114.966C136.522 114.966 136.109 115.228 135.836 115.752C135.567 116.277 135.433 117.135 135.433 118.326C135.433 119.496 135.567 120.333 135.836 120.835C136.104 121.338 136.52 121.589 137.084 121.589ZM145.955 113.601H147.821V119.328H149.27V120.92H147.821V123H145.994L146.001 120.92H141.672V119.36L145.955 113.601ZM143.427 119.328H146.001V115.882L143.427 119.328ZM45.3054 134.279V141H44.1419V134.279H45.3054ZM45.3314 131.607V132.855H44.1029V131.607H45.3314ZM49.706 141.13C49.238 141.13 48.8025 141.059 48.3995 140.915C48.0008 140.768 47.6693 140.541 47.405 140.233C47.1406 139.921 46.9738 139.524 46.9045 139.043H47.9965C48.0571 139.308 48.1655 139.529 48.3215 139.706C48.4818 139.88 48.6811 140.012 48.9195 140.103C49.1578 140.19 49.4178 140.233 49.6995 140.233C50.1501 140.233 50.5141 140.148 50.7915 139.979C51.0688 139.81 51.2075 139.55 51.2075 139.199C51.2075 138.952 51.1338 138.755 50.9865 138.608C50.8435 138.456 50.6203 138.346 50.317 138.276L48.926 137.932C48.3843 137.802 47.951 137.598 47.626 137.321C47.301 137.044 47.1385 136.656 47.1385 136.157C47.1341 135.763 47.2273 135.416 47.418 135.117C47.6086 134.818 47.8946 134.582 48.276 134.409C48.6573 134.236 49.1318 134.149 49.6995 134.149C50.4275 134.149 51.0146 134.314 51.461 134.643C51.9116 134.968 52.1456 135.447 52.163 136.079H51.1035C51.0601 135.759 50.915 135.505 50.668 135.319C50.4253 135.128 50.0981 135.033 49.6865 135.033C49.2575 135.033 48.9086 135.12 48.64 135.293C48.3713 135.462 48.237 135.726 48.237 136.086C48.237 136.324 48.3323 136.513 48.523 136.651C48.7136 136.786 48.9953 136.898 49.368 136.989L50.7135 137.328C51.0255 137.41 51.2811 137.518 51.4805 137.652C51.6841 137.787 51.8445 137.936 51.9615 138.101C52.0828 138.266 52.1673 138.439 52.215 138.621C52.267 138.799 52.293 138.97 52.293 139.134C52.293 139.546 52.189 139.901 51.981 140.2C51.7773 140.495 51.4826 140.725 51.097 140.889C50.7156 141.05 50.252 141.13 49.706 141.13ZM59.2311 134.149C59.7121 134.149 60.1454 134.242 60.5311 134.428C60.9168 134.61 61.2309 134.87 61.4736 135.208C61.7206 135.546 61.8744 135.945 61.9351 136.404H60.8691C60.8301 136.17 60.7391 135.956 60.5961 135.761C60.4574 135.566 60.2733 135.41 60.0436 135.293C59.8139 135.176 59.5453 135.117 59.2376 135.117C58.6613 135.117 58.1933 135.325 57.8336 135.741C57.4739 136.157 57.2941 136.794 57.2941 137.652C57.2941 138.428 57.4588 139.05 57.7881 139.518C58.1218 139.982 58.6114 140.213 59.2571 140.213C59.5648 140.213 59.8313 140.155 60.0566 140.038C60.2863 139.917 60.4704 139.758 60.6091 139.563C60.7478 139.364 60.8366 139.152 60.8756 138.926H61.9221C61.8658 139.377 61.7141 139.767 61.4671 140.096C61.2201 140.426 60.9038 140.681 60.5181 140.863C60.1368 141.041 59.7078 141.13 59.2311 141.13C58.6288 141.13 58.0936 140.998 57.6256 140.733C57.1619 140.469 56.7979 140.079 56.5336 139.563C56.2693 139.048 56.1371 138.415 56.1371 137.665C56.1371 136.963 56.2563 136.35 56.4946 135.826C56.7373 135.297 57.0883 134.886 57.5476 134.591C58.0113 134.296 58.5724 134.149 59.2311 134.149ZM66.1324 141.13C65.5127 141.13 64.9711 140.998 64.5074 140.733C64.0437 140.465 63.6841 140.073 63.4284 139.557C63.1727 139.041 63.0449 138.411 63.0449 137.665C63.0449 136.963 63.1641 136.348 63.4024 135.819C63.6407 135.291 63.9896 134.881 64.4489 134.591C64.9126 134.296 65.4737 134.149 66.1324 134.149C66.7521 134.149 67.2894 134.285 67.7444 134.558C68.2037 134.827 68.5591 135.224 68.8104 135.748C69.0617 136.272 69.1874 136.911 69.1874 137.665C69.1874 138.35 69.0704 138.952 68.8364 139.472C68.6067 139.992 68.2644 140.4 67.8094 140.694C67.3587 140.985 66.7997 141.13 66.1324 141.13ZM66.1324 140.181C66.5354 140.181 66.8756 140.079 67.1529 139.875C67.4302 139.672 67.6404 139.379 67.7834 138.998C67.9264 138.617 67.9979 138.164 67.9979 137.639C67.9979 137.158 67.9351 136.727 67.8094 136.346C67.6837 135.96 67.4822 135.655 67.2049 135.429C66.9319 135.204 66.5744 135.091 66.1324 135.091C65.7251 135.091 65.3806 135.193 65.0989 135.397C64.8172 135.596 64.6027 135.887 64.4554 136.268C64.3124 136.649 64.2409 137.106 64.2409 137.639C64.2409 138.112 64.3059 138.541 64.4359 138.926C64.5659 139.312 64.7696 139.618 65.0469 139.843C65.3242 140.068 65.6861 140.181 66.1324 140.181ZM70.6607 141V134.279H71.8177V135.254C72.004 134.959 72.2597 134.701 72.5847 134.48C72.9097 134.259 73.3322 134.149 73.8522 134.149C74.0949 134.149 74.3419 134.19 74.5932 134.272C74.8489 134.355 75.0829 134.478 75.2952 134.643C75.5075 134.808 75.6722 135.009 75.7892 135.247C75.9972 134.918 76.2789 134.654 76.6342 134.454C76.9895 134.251 77.3904 134.149 77.8367 134.149C78.0707 134.149 78.3155 134.186 78.5712 134.259C78.8269 134.329 79.063 134.454 79.2797 134.636C79.5007 134.814 79.6805 135.063 79.8192 135.384C79.9579 135.7 80.0272 136.108 80.0272 136.606V141H78.8182V136.723C78.8182 136.316 78.7532 136.001 78.6232 135.78C78.4932 135.555 78.322 135.397 78.1097 135.306C77.9017 135.215 77.6785 135.169 77.4402 135.169C77.2322 135.169 77.0112 135.211 76.7772 135.293C76.5432 135.375 76.3439 135.514 76.1792 135.709C76.0145 135.904 75.9322 136.17 75.9322 136.508V141H74.7362V136.372C74.7362 136.108 74.6647 135.887 74.5217 135.709C74.383 135.531 74.2075 135.397 73.9952 135.306C73.7872 135.215 73.5792 135.169 73.3712 135.169C73.1415 135.169 72.9097 135.215 72.6757 135.306C72.446 135.397 72.251 135.542 72.0907 135.741C71.9347 135.936 71.8567 136.192 71.8567 136.508V141H70.6607ZM81.8088 143.093V134.279H83.0048L83.0178 135.449C83.0958 135.31 83.1954 135.165 83.3168 135.013C83.4424 134.862 83.5941 134.721 83.7718 134.591C83.9538 134.461 84.1639 134.355 84.4023 134.272C84.6449 134.19 84.9201 134.149 85.2278 134.149C85.7651 134.149 86.2374 134.272 86.6448 134.519C87.0564 134.762 87.3771 135.135 87.6068 135.637C87.8364 136.14 87.9513 136.777 87.9513 137.548C87.9513 138.32 87.8386 138.972 87.6133 139.505C87.3923 140.034 87.0716 140.437 86.6513 140.714C86.2309 140.991 85.7239 141.13 85.1303 141.13C84.8313 141.13 84.5648 141.087 84.3308 141C84.1011 140.918 83.8996 140.809 83.7263 140.675C83.5573 140.536 83.4143 140.389 83.2973 140.233C83.1846 140.077 83.0914 139.927 83.0178 139.784V143.093H81.8088ZM84.9028 140.194C85.4574 140.194 85.9103 139.984 86.2613 139.563C86.6123 139.139 86.7878 138.48 86.7878 137.587C86.7878 136.82 86.6274 136.212 86.3068 135.761C85.9861 135.31 85.5181 135.085 84.9028 135.085C84.2788 135.085 83.8064 135.317 83.4858 135.78C83.1651 136.24 83.0048 136.842 83.0048 137.587C83.0048 138.068 83.0763 138.506 83.2193 138.9C83.3623 139.295 83.5746 139.609 83.8563 139.843C84.1379 140.077 84.4868 140.194 84.9028 140.194ZM91.124 141.085C90.76 141.085 90.4653 141.035 90.24 140.935C90.019 140.835 89.8478 140.701 89.7265 140.532C89.6095 140.363 89.5293 140.17 89.486 139.953C89.447 139.732 89.4275 139.505 89.4275 139.271V131.341H90.6105V139.154C90.6105 139.492 90.6755 139.745 90.8055 139.914C90.9398 140.083 91.1262 140.177 91.3645 140.194L91.7285 140.2V140.98C91.6288 141.011 91.5248 141.035 91.4165 141.052C91.3082 141.074 91.2107 141.085 91.124 141.085ZM93.9433 137.919C93.9433 138.344 94.0127 138.729 94.1513 139.076C94.2943 139.418 94.5088 139.691 94.7948 139.895C95.0852 140.099 95.447 140.2 95.8803 140.2C96.3093 140.2 96.6777 140.101 96.9853 139.901C97.2973 139.702 97.4967 139.414 97.5833 139.037H98.7208C98.6385 139.492 98.4565 139.875 98.1748 140.188C97.8932 140.499 97.553 140.736 97.1543 140.896C96.7557 141.052 96.3397 141.13 95.9063 141.13C95.278 141.13 94.7255 140.994 94.2488 140.72C93.7722 140.447 93.3995 140.055 93.1308 139.544C92.8622 139.033 92.7278 138.419 92.7278 137.704C92.7278 136.998 92.8492 136.378 93.0918 135.845C93.3345 135.312 93.6855 134.896 94.1448 134.597C94.6085 134.298 95.1653 134.149 95.8153 134.149C96.448 134.149 96.9832 134.285 97.4208 134.558C97.8585 134.831 98.19 135.217 98.4153 135.715C98.645 136.209 98.7598 136.797 98.7598 137.477V137.919H93.9433ZM93.9498 137.106H97.6028C97.6028 136.721 97.5378 136.374 97.4078 136.066C97.2778 135.754 97.0785 135.51 96.8098 135.332C96.5455 135.15 96.2118 135.059 95.8088 135.059C95.3885 135.059 95.0397 135.161 94.7623 135.364C94.4893 135.564 94.2835 135.822 94.1448 136.138C94.0105 136.45 93.9455 136.773 93.9498 137.106ZM103.509 135.156H101.995V139.336C101.995 139.574 102.019 139.75 102.066 139.862C102.118 139.971 102.203 140.04 102.32 140.07C102.441 140.101 102.606 140.116 102.814 140.116H103.548V140.922C103.466 140.952 103.34 140.978 103.171 141C103.007 141.022 102.801 141.033 102.554 141.033C102.09 141.033 101.73 140.97 101.475 140.844C101.219 140.718 101.039 140.532 100.935 140.285C100.836 140.038 100.786 139.735 100.786 139.375V135.156H99.6938V134.279H100.818L101.111 132.322H101.995V134.272H103.509V135.156ZM105.817 137.919C105.817 138.344 105.886 138.729 106.025 139.076C106.168 139.418 106.382 139.691 106.668 139.895C106.958 140.099 107.32 140.2 107.754 140.2C108.183 140.2 108.551 140.101 108.859 139.901C109.171 139.702 109.37 139.414 109.457 139.037H110.594C110.512 139.492 110.33 139.875 110.048 140.188C109.766 140.499 109.426 140.736 109.028 140.896C108.629 141.052 108.213 141.13 107.78 141.13C107.151 141.13 106.599 140.994 106.122 140.72C105.645 140.447 105.273 140.055 105.004 139.544C104.735 139.033 104.601 138.419 104.601 137.704C104.601 136.998 104.722 136.378 104.965 135.845C105.208 135.312 105.559 134.896 106.018 134.597C106.482 134.298 107.039 134.149 107.689 134.149C108.321 134.149 108.856 134.285 109.294 134.558C109.732 134.831 110.063 135.217 110.289 135.715C110.518 136.209 110.633 136.797 110.633 137.477V137.919H105.817ZM105.823 137.106H109.476C109.476 136.721 109.411 136.374 109.281 136.066C109.151 135.754 108.952 135.51 108.683 135.332C108.419 135.15 108.085 135.059 107.682 135.059C107.262 135.059 106.913 135.161 106.636 135.364C106.363 135.564 106.157 135.822 106.018 136.138C105.884 136.45 105.819 136.773 105.823 137.106ZM114.608 141.13C113.737 141.13 113.046 140.831 112.535 140.233C112.023 139.635 111.768 138.762 111.768 137.613C111.768 136.916 111.87 136.307 112.073 135.787C112.281 135.267 112.589 134.864 112.996 134.578C113.404 134.292 113.911 134.149 114.517 134.149C114.838 134.149 115.122 134.19 115.369 134.272C115.62 134.355 115.837 134.459 116.019 134.584C116.201 134.71 116.348 134.84 116.461 134.974C116.578 135.109 116.664 135.232 116.721 135.345V131.341H117.93V141H117.013L116.883 139.622C116.84 139.752 116.771 139.904 116.675 140.077C116.58 140.246 116.446 140.413 116.272 140.577C116.099 140.738 115.876 140.87 115.603 140.974C115.334 141.078 115.003 141.13 114.608 141.13ZM114.823 140.207C115.503 140.207 115.988 140.001 116.279 139.589C116.573 139.173 116.721 138.495 116.721 137.555C116.716 137.031 116.649 136.584 116.519 136.216C116.394 135.848 116.194 135.568 115.921 135.377C115.653 135.182 115.295 135.085 114.849 135.085C114.294 135.085 113.843 135.282 113.497 135.676C113.15 136.071 112.977 136.697 112.977 137.555C112.977 138.396 113.133 139.048 113.445 139.511C113.761 139.975 114.22 140.207 114.823 140.207ZM124.57 141.13C124.137 141.13 123.753 141.054 123.42 140.902C123.086 140.746 122.824 140.523 122.633 140.233C122.447 139.943 122.354 139.592 122.354 139.18C122.354 138.435 122.614 137.88 123.134 137.516C123.654 137.152 124.488 136.957 125.636 136.931L126.839 136.898V136.372C126.839 135.96 126.715 135.635 126.468 135.397C126.221 135.154 125.838 135.033 125.318 135.033C124.932 135.037 124.592 135.128 124.297 135.306C124.007 135.484 123.818 135.774 123.732 136.177H122.672C122.698 135.739 122.822 135.371 123.043 135.072C123.264 134.769 123.571 134.539 123.966 134.383C124.364 134.227 124.835 134.149 125.376 134.149C125.961 134.149 126.447 134.231 126.832 134.396C127.222 134.561 127.513 134.803 127.703 135.124C127.898 135.445 127.996 135.839 127.996 136.307V141H126.969L126.884 139.739C126.624 140.263 126.293 140.627 125.89 140.831C125.491 141.03 125.051 141.13 124.57 141.13ZM124.934 140.265C125.16 140.265 125.383 140.224 125.604 140.142C125.829 140.06 126.035 139.949 126.221 139.81C126.408 139.667 126.555 139.509 126.663 139.336C126.776 139.158 126.834 138.976 126.839 138.79V137.639L125.838 137.659C125.326 137.668 124.897 137.72 124.551 137.815C124.208 137.91 123.951 138.06 123.777 138.263C123.608 138.467 123.524 138.734 123.524 139.063C123.524 139.44 123.654 139.735 123.914 139.947C124.178 140.159 124.518 140.265 124.934 140.265ZM129.949 141V134.279H131.113V135.254C131.221 135.068 131.371 134.892 131.561 134.727C131.756 134.563 131.99 134.431 132.263 134.331C132.541 134.231 132.859 134.181 133.219 134.181C133.643 134.181 134.033 134.266 134.389 134.435C134.748 134.604 135.034 134.868 135.247 135.228C135.463 135.583 135.572 136.043 135.572 136.606V141H134.369V136.723C134.369 136.199 134.231 135.811 133.953 135.559C133.68 135.304 133.325 135.176 132.887 135.176C132.584 135.176 132.3 135.226 132.036 135.325C131.771 135.421 131.557 135.568 131.392 135.767C131.228 135.962 131.145 136.209 131.145 136.508V141H129.949ZM139.777 141.13C138.906 141.13 138.214 140.831 137.703 140.233C137.192 139.635 136.936 138.762 136.936 137.613C136.936 136.916 137.038 136.307 137.242 135.787C137.45 135.267 137.757 134.864 138.165 134.578C138.572 134.292 139.079 134.149 139.686 134.149C140.006 134.149 140.29 134.19 140.537 134.272C140.788 134.355 141.005 134.459 141.187 134.584C141.369 134.71 141.516 134.84 141.629 134.974C141.746 135.109 141.833 135.232 141.889 135.345V131.341H143.098V141H142.182L142.052 139.622C142.008 139.752 141.939 139.904 141.844 140.077C141.748 140.246 141.614 140.413 141.441 140.577C141.267 140.738 141.044 140.87 140.771 140.974C140.502 141.078 140.171 141.13 139.777 141.13ZM139.991 140.207C140.671 140.207 141.157 140.001 141.447 139.589C141.742 139.173 141.889 138.495 141.889 137.555C141.885 137.031 141.818 136.584 141.688 136.216C141.562 135.848 141.363 135.568 141.09 135.377C140.821 135.182 140.463 135.085 140.017 135.085C139.462 135.085 139.012 135.282 138.665 135.676C138.318 136.071 138.145 136.697 138.145 137.555C138.145 138.396 138.301 139.048 138.613 139.511C138.929 139.975 139.389 140.207 139.991 140.207ZM25.022 161.093V152.279H26.218L26.231 153.449C26.309 153.31 26.4087 153.165 26.53 153.013C26.6557 152.862 26.8074 152.721 26.985 152.591C27.167 152.461 27.3772 152.355 27.6155 152.272C27.8582 152.19 28.1334 152.149 28.441 152.149C28.9784 152.149 29.4507 152.272 29.858 152.519C30.2697 152.762 30.5904 153.135 30.82 153.637C31.0497 154.14 31.1645 154.777 31.1645 155.548C31.1645 156.32 31.0519 156.972 30.8265 157.505C30.6055 158.034 30.2849 158.437 29.8645 158.714C29.4442 158.991 28.9372 159.13 28.3435 159.13C28.0445 159.13 27.778 159.087 27.544 159C27.3144 158.918 27.1129 158.809 26.9395 158.675C26.7705 158.536 26.6275 158.389 26.5105 158.233C26.3979 158.077 26.3047 157.927 26.231 157.784V161.093H25.022ZM28.116 158.194C28.6707 158.194 29.1235 157.984 29.4745 157.563C29.8255 157.139 30.001 156.48 30.001 155.587C30.001 154.82 29.8407 154.212 29.52 153.761C29.1994 153.31 28.7314 153.085 28.116 153.085C27.492 153.085 27.0197 153.317 26.699 153.78C26.3784 154.24 26.218 154.842 26.218 155.587C26.218 156.068 26.2895 156.506 26.4325 156.9C26.5755 157.295 26.7879 157.609 27.0695 157.843C27.3512 158.077 27.7 158.194 28.116 158.194ZM32.6408 159V152.279H33.7848V153.572C33.8975 153.252 34.0556 152.987 34.2593 152.779C34.463 152.567 34.6948 152.409 34.9548 152.305C35.2191 152.201 35.4921 152.149 35.7738 152.149C35.8735 152.149 35.971 152.155 36.0663 152.169C36.1616 152.181 36.2353 152.203 36.2873 152.233V153.397C36.2223 153.367 36.1378 153.347 36.0338 153.338C35.9341 153.325 35.8496 153.319 35.7803 153.319C35.5116 153.302 35.2603 153.319 35.0263 153.371C34.7923 153.419 34.5865 153.503 34.4088 153.624C34.2311 153.746 34.0903 153.906 33.9863 154.105C33.8866 154.3 33.8368 154.539 33.8368 154.82V159H32.6408ZM40.1 159.13C39.4803 159.13 38.9387 158.998 38.475 158.733C38.0113 158.465 37.6517 158.073 37.396 157.557C37.1403 157.041 37.0125 156.411 37.0125 155.665C37.0125 154.963 37.1317 154.348 37.37 153.819C37.6083 153.291 37.9572 152.881 38.4165 152.591C38.8802 152.296 39.4413 152.149 40.1 152.149C40.7197 152.149 41.257 152.285 41.712 152.558C42.1713 152.827 42.5267 153.224 42.778 153.748C43.0293 154.272 43.155 154.911 43.155 155.665C43.155 156.35 43.038 156.952 42.804 157.472C42.5743 157.992 42.232 158.4 41.777 158.694C41.3263 158.985 40.7673 159.13 40.1 159.13ZM40.1 158.181C40.503 158.181 40.8432 158.079 41.1205 157.875C41.3978 157.672 41.608 157.379 41.751 156.998C41.894 156.617 41.9655 156.164 41.9655 155.639C41.9655 155.158 41.9027 154.727 41.777 154.346C41.6513 153.96 41.4498 153.655 41.1725 153.429C40.8995 153.204 40.542 153.091 40.1 153.091C39.6927 153.091 39.3482 153.193 39.0665 153.397C38.7848 153.596 38.5703 153.887 38.423 154.268C38.28 154.649 38.2085 155.106 38.2085 155.639C38.2085 156.112 38.2735 156.541 38.4035 156.926C38.5335 157.312 38.7372 157.618 39.0145 157.843C39.2918 158.068 39.6537 158.181 40.1 158.181ZM47.3063 152.149C47.7873 152.149 48.2206 152.242 48.6063 152.428C48.992 152.61 49.3061 152.87 49.5488 153.208C49.7958 153.546 49.9496 153.945 50.0103 154.404H48.9443C48.9053 154.17 48.8143 153.956 48.6713 153.761C48.5326 153.566 48.3485 153.41 48.1188 153.293C47.8891 153.176 47.6205 153.117 47.3128 153.117C46.7365 153.117 46.2685 153.325 45.9088 153.741C45.5491 154.157 45.3693 154.794 45.3693 155.652C45.3693 156.428 45.534 157.05 45.8633 157.518C46.197 157.982 46.6866 158.213 47.3323 158.213C47.64 158.213 47.9065 158.155 48.1318 158.038C48.3615 157.917 48.5456 157.758 48.6843 157.563C48.823 157.364 48.9118 157.152 48.9508 156.926H49.9973C49.941 157.377 49.7893 157.767 49.5423 158.096C49.2953 158.426 48.979 158.681 48.5933 158.863C48.212 159.041 47.783 159.13 47.3063 159.13C46.704 159.13 46.1688 158.998 45.7008 158.733C45.2371 158.469 44.8731 158.079 44.6088 157.563C44.3445 157.048 44.2123 156.415 44.2123 155.665C44.2123 154.963 44.3315 154.35 44.5698 153.826C44.8125 153.297 45.1635 152.886 45.6228 152.591C46.0865 152.296 46.6476 152.149 47.3063 152.149ZM52.3941 155.919C52.3941 156.344 52.4634 156.729 52.6021 157.076C52.7451 157.418 52.9596 157.691 53.2456 157.895C53.5359 158.099 53.8978 158.2 54.3311 158.2C54.7601 158.2 55.1284 158.101 55.4361 157.901C55.7481 157.702 55.9474 157.414 56.0341 157.037H57.1716C57.0893 157.492 56.9073 157.875 56.6256 158.188C56.3439 158.499 56.0038 158.736 55.6051 158.896C55.2064 159.052 54.7904 159.13 54.3571 159.13C53.7288 159.13 53.1763 158.994 52.6996 158.72C52.2229 158.447 51.8503 158.055 51.5816 157.544C51.3129 157.033 51.1786 156.419 51.1786 155.704C51.1786 154.998 51.2999 154.378 51.5426 153.845C51.7853 153.312 52.1363 152.896 52.5956 152.597C53.0593 152.298 53.6161 152.149 54.2661 152.149C54.8988 152.149 55.4339 152.285 55.8716 152.558C56.3093 152.831 56.6408 153.217 56.8661 153.715C57.0958 154.209 57.2106 154.797 57.2106 155.477V155.919H52.3941ZM52.4006 155.106H56.0536C56.0536 154.721 55.9886 154.374 55.8586 154.066C55.7286 153.754 55.5293 153.51 55.2606 153.332C54.9963 153.15 54.6626 153.059 54.2596 153.059C53.8393 153.059 53.4904 153.161 53.2131 153.364C52.9401 153.564 52.7343 153.822 52.5956 154.138C52.4613 154.45 52.3963 154.773 52.4006 155.106ZM61.096 159.13C60.628 159.13 60.1925 159.059 59.7895 158.915C59.3909 158.768 59.0594 158.541 58.795 158.233C58.5307 157.921 58.3639 157.524 58.2945 157.043H59.3865C59.4472 157.308 59.5555 157.529 59.7115 157.706C59.8719 157.88 60.0712 158.012 60.3095 158.103C60.5479 158.19 60.8079 158.233 61.0895 158.233C61.5402 158.233 61.9042 158.148 62.1815 157.979C62.4589 157.81 62.5975 157.55 62.5975 157.199C62.5975 156.952 62.5239 156.755 62.3765 156.608C62.2335 156.456 62.0104 156.346 61.707 156.276L60.316 155.932C59.7744 155.802 59.341 155.598 59.016 155.321C58.691 155.044 58.5285 154.656 58.5285 154.157C58.5242 153.763 58.6174 153.416 58.808 153.117C58.9987 152.818 59.2847 152.582 59.666 152.409C60.0474 152.236 60.5219 152.149 61.0895 152.149C61.8175 152.149 62.4047 152.314 62.851 152.643C63.3017 152.968 63.5357 153.447 63.553 154.079H62.4935C62.4502 153.759 62.305 153.505 62.058 153.319C61.8154 153.128 61.4882 153.033 61.0765 153.033C60.6475 153.033 60.2987 153.12 60.03 153.293C59.7614 153.462 59.627 153.726 59.627 154.086C59.627 154.324 59.7224 154.513 59.913 154.651C60.1037 154.786 60.3854 154.898 60.758 154.989L62.1035 155.328C62.4155 155.41 62.6712 155.518 62.8705 155.652C63.0742 155.787 63.2345 155.936 63.3515 156.101C63.4729 156.266 63.5574 156.439 63.605 156.621C63.657 156.799 63.683 156.97 63.683 157.134C63.683 157.546 63.579 157.901 63.371 158.2C63.1674 158.495 62.8727 158.725 62.487 158.889C62.1057 159.05 61.642 159.13 61.096 159.13ZM67.5341 159.13C67.0661 159.13 66.6306 159.059 66.2276 158.915C65.8289 158.768 65.4974 158.541 65.2331 158.233C64.9688 157.921 64.8019 157.524 64.7326 157.043H65.8246C65.8853 157.308 65.9936 157.529 66.1496 157.706C66.3099 157.88 66.5093 158.012 66.7476 158.103C66.9859 158.19 67.2459 158.233 67.5276 158.233C67.9783 158.233 68.3423 158.148 68.6196 157.979C68.8969 157.81 69.0356 157.55 69.0356 157.199C69.0356 156.952 68.9619 156.755 68.8146 156.608C68.6716 156.456 68.4484 156.346 68.1451 156.276L66.7541 155.932C66.2124 155.802 65.7791 155.598 65.4541 155.321C65.1291 155.044 64.9666 154.656 64.9666 154.157C64.9623 153.763 65.0554 153.416 65.2461 153.117C65.4368 152.818 65.7228 152.582 66.1041 152.409C66.4854 152.236 66.9599 152.149 67.5276 152.149C68.2556 152.149 68.8428 152.314 69.2891 152.643C69.7398 152.968 69.9738 153.447 69.9911 154.079H68.9316C68.8883 153.759 68.7431 153.505 68.4961 153.319C68.2534 153.128 67.9263 153.033 67.5146 153.033C67.0856 153.033 66.7368 153.12 66.4681 153.293C66.1994 153.462 66.0651 153.726 66.0651 154.086C66.0651 154.324 66.1604 154.513 66.3511 154.651C66.5418 154.786 66.8234 154.898 67.1961 154.989L68.5416 155.328C68.8536 155.41 69.1093 155.518 69.3086 155.652C69.5123 155.787 69.6726 155.936 69.7896 156.101C69.9109 156.266 69.9954 156.439 70.0431 156.621C70.0951 156.799 70.1211 156.97 70.1211 157.134C70.1211 157.546 70.0171 157.901 69.8091 158.2C69.6054 158.495 69.3108 158.725 68.9251 158.889C68.5438 159.05 68.0801 159.13 67.5341 159.13ZM72.5589 155.919C72.5589 156.344 72.6283 156.729 72.7669 157.076C72.9099 157.418 73.1244 157.691 73.4104 157.895C73.7008 158.099 74.0626 158.2 74.4959 158.2C74.9249 158.2 75.2933 158.101 75.6009 157.901C75.9129 157.702 76.1123 157.414 76.1989 157.037H77.3364C77.2541 157.492 77.0721 157.875 76.7904 158.188C76.5088 158.499 76.1686 158.736 75.7699 158.896C75.3713 159.052 74.9553 159.13 74.5219 159.13C73.8936 159.13 73.3411 158.994 72.8644 158.72C72.3878 158.447 72.0151 158.055 71.7464 157.544C71.4778 157.033 71.3434 156.419 71.3434 155.704C71.3434 154.998 71.4648 154.378 71.7074 153.845C71.9501 153.312 72.3011 152.896 72.7604 152.597C73.2241 152.298 73.7809 152.149 74.4309 152.149C75.0636 152.149 75.5988 152.285 76.0364 152.558C76.4741 152.831 76.8056 153.217 77.0309 153.715C77.2606 154.209 77.3754 154.797 77.3754 155.477V155.919H72.5589ZM72.5654 155.106H76.2184C76.2184 154.721 76.1534 154.374 76.0234 154.066C75.8934 153.754 75.6941 153.51 75.4254 153.332C75.1611 153.15 74.8274 153.059 74.4244 153.059C74.0041 153.059 73.6553 153.161 73.3779 153.364C73.1049 153.564 72.8991 153.822 72.7604 154.138C72.6261 154.45 72.5611 154.773 72.5654 155.106ZM81.3506 159.13C80.4796 159.13 79.7885 158.831 79.2771 158.233C78.7658 157.635 78.5101 156.762 78.5101 155.613C78.5101 154.916 78.612 154.307 78.8156 153.787C79.0236 153.267 79.3313 152.864 79.7386 152.578C80.146 152.292 80.653 152.149 81.2596 152.149C81.5803 152.149 81.8641 152.19 82.1111 152.272C82.3625 152.355 82.5791 152.459 82.7611 152.584C82.9431 152.71 83.0905 152.84 83.2031 152.974C83.3201 153.109 83.4068 153.232 83.4631 153.345V149.341H84.6721V159H83.7556L83.6256 157.622C83.5823 157.752 83.513 157.904 83.4176 158.077C83.3223 158.246 83.188 158.413 83.0146 158.577C82.8413 158.738 82.6181 158.87 82.3451 158.974C82.0765 159.078 81.745 159.13 81.3506 159.13ZM81.5651 158.207C82.2455 158.207 82.7308 158.001 83.0211 157.589C83.3158 157.173 83.4631 156.495 83.4631 155.555C83.4588 155.031 83.3916 154.584 83.2616 154.216C83.136 153.848 82.9366 153.568 82.6636 153.377C82.395 153.182 82.0375 153.085 81.5911 153.085C81.0365 153.085 80.5858 153.282 80.2391 153.676C79.8925 154.071 79.7191 154.697 79.7191 155.555C79.7191 156.396 79.8751 157.048 80.1871 157.511C80.5035 157.975 80.9628 158.207 81.5651 158.207ZM91.8392 159.13C91.3712 159.13 90.9357 159.059 90.5327 158.915C90.134 158.768 89.8025 158.541 89.5382 158.233C89.2738 157.921 89.107 157.524 89.0377 157.043H90.1297C90.1903 157.308 90.2987 157.529 90.4547 157.706C90.615 157.88 90.8143 158.012 91.0527 158.103C91.291 158.19 91.551 158.233 91.8327 158.233C92.2833 158.233 92.6473 158.148 92.9247 157.979C93.202 157.81 93.3407 157.55 93.3407 157.199C93.3407 156.952 93.267 156.755 93.1197 156.608C92.9767 156.456 92.7535 156.346 92.4502 156.276L91.0592 155.932C90.5175 155.802 90.0842 155.598 89.7592 155.321C89.4342 155.044 89.2717 154.656 89.2717 154.157C89.2673 153.763 89.3605 153.416 89.5512 153.117C89.7418 152.818 90.0278 152.582 90.4092 152.409C90.7905 152.236 91.265 152.149 91.8327 152.149C92.5607 152.149 93.1478 152.314 93.5942 152.643C94.0448 152.968 94.2788 153.447 94.2962 154.079H93.2367C93.1933 153.759 93.0482 153.505 92.8012 153.319C92.5585 153.128 92.2313 153.033 91.8197 153.033C91.3907 153.033 91.0418 153.12 90.7732 153.293C90.5045 153.462 90.3702 153.726 90.3702 154.086C90.3702 154.324 90.4655 154.513 90.6562 154.651C90.8468 154.786 91.1285 154.898 91.5012 154.989L92.8467 155.328C93.1587 155.41 93.4143 155.518 93.6137 155.652C93.8173 155.787 93.9777 155.936 94.0947 156.101C94.216 156.266 94.3005 156.439 94.3482 156.621C94.4002 156.799 94.4262 156.97 94.4262 157.134C94.4262 157.546 94.3222 157.901 94.1142 158.2C93.9105 158.495 93.6158 158.725 93.2302 158.889C92.8488 159.05 92.3852 159.13 91.8392 159.13ZM98.476 159.13C98.125 159.126 97.7935 159.076 97.4815 158.98C97.1739 158.881 96.9009 158.736 96.6625 158.545C96.4242 158.354 96.2357 158.118 96.097 157.836C95.9627 157.55 95.8955 157.219 95.8955 156.842V152.279H97.098V156.718C97.098 157.156 97.2324 157.511 97.501 157.784C97.774 158.057 98.1835 158.194 98.7295 158.194C99.2235 158.194 99.62 158.066 99.919 157.81C100.222 157.55 100.374 157.165 100.374 156.653V152.279H101.57V159H100.615L100.491 157.713C100.409 158.051 100.268 158.324 100.069 158.532C99.8735 158.74 99.6374 158.894 99.36 158.993C99.087 159.089 98.7924 159.134 98.476 159.13ZM106.023 152.149C106.504 152.149 106.938 152.242 107.323 152.428C107.709 152.61 108.023 152.87 108.266 153.208C108.513 153.546 108.667 153.945 108.727 154.404H107.661C107.622 154.17 107.531 153.956 107.388 153.761C107.25 153.566 107.066 153.41 106.836 153.293C106.606 153.176 106.338 153.117 106.03 153.117C105.454 153.117 104.986 153.325 104.626 153.741C104.266 154.157 104.086 154.794 104.086 155.652C104.086 156.428 104.251 157.05 104.58 157.518C104.914 157.982 105.404 158.213 106.049 158.213C106.357 158.213 106.624 158.155 106.849 158.038C107.079 157.917 107.263 157.758 107.401 157.563C107.54 157.364 107.629 157.152 107.668 156.926H108.714C108.658 157.377 108.506 157.767 108.259 158.096C108.012 158.426 107.696 158.681 107.31 158.863C106.929 159.041 106.5 159.13 106.023 159.13C105.421 159.13 104.886 158.998 104.418 158.733C103.954 158.469 103.59 158.079 103.326 157.563C103.062 157.048 102.929 156.415 102.929 155.665C102.929 154.963 103.049 154.35 103.287 153.826C103.53 153.297 103.881 152.886 104.34 152.591C104.804 152.296 105.365 152.149 106.023 152.149ZM112.931 152.149C113.412 152.149 113.846 152.242 114.231 152.428C114.617 152.61 114.931 152.87 115.174 153.208C115.421 153.546 115.575 153.945 115.635 154.404H114.569C114.53 154.17 114.439 153.956 114.296 153.761C114.158 153.566 113.973 153.41 113.744 153.293C113.514 153.176 113.245 153.117 112.938 153.117C112.361 153.117 111.893 153.325 111.534 153.741C111.174 154.157 110.994 154.794 110.994 155.652C110.994 156.428 111.159 157.05 111.488 157.518C111.822 157.982 112.312 158.213 112.957 158.213C113.265 158.213 113.531 158.155 113.757 158.038C113.986 157.917 114.171 157.758 114.309 157.563C114.448 157.364 114.537 157.152 114.576 156.926H115.622C115.566 157.377 115.414 157.767 115.167 158.096C114.92 158.426 114.604 158.681 114.218 158.863C113.837 159.041 113.408 159.13 112.931 159.13C112.329 159.13 111.794 158.998 111.326 158.733C110.862 158.469 110.498 158.079 110.234 157.563C109.969 157.048 109.837 156.415 109.837 155.665C109.837 154.963 109.956 154.35 110.195 153.826C110.437 153.297 110.788 152.886 111.248 152.591C111.711 152.296 112.273 152.149 112.931 152.149ZM118.019 155.919C118.019 156.344 118.088 156.729 118.227 157.076C118.37 157.418 118.585 157.691 118.871 157.895C119.161 158.099 119.523 158.2 119.956 158.2C120.385 158.2 120.753 158.101 121.061 157.901C121.373 157.702 121.572 157.414 121.659 157.037H122.797C122.714 157.492 122.532 157.875 122.251 158.188C121.969 158.499 121.629 158.736 121.23 158.896C120.831 159.052 120.415 159.13 119.982 159.13C119.354 159.13 118.801 158.994 118.325 158.72C117.848 158.447 117.475 158.055 117.207 157.544C116.938 157.033 116.804 156.419 116.804 155.704C116.804 154.998 116.925 154.378 117.168 153.845C117.41 153.312 117.761 152.896 118.221 152.597C118.684 152.298 119.241 152.149 119.891 152.149C120.524 152.149 121.059 152.285 121.497 152.558C121.934 152.831 122.266 153.217 122.491 153.715C122.721 154.209 122.836 154.797 122.836 155.477V155.919H118.019ZM118.026 155.106H121.679C121.679 154.721 121.614 154.374 121.484 154.066C121.354 153.754 121.154 153.51 120.886 153.332C120.621 153.15 120.288 153.059 119.885 153.059C119.464 153.059 119.115 153.161 118.838 153.364C118.565 153.564 118.359 153.822 118.221 154.138C118.086 154.45 118.021 154.773 118.026 155.106ZM126.721 159.13C126.253 159.13 125.818 159.059 125.415 158.915C125.016 158.768 124.684 158.541 124.42 158.233C124.156 157.921 123.989 157.524 123.92 157.043H125.012C125.072 157.308 125.181 157.529 125.337 157.706C125.497 157.88 125.696 158.012 125.935 158.103C126.173 158.19 126.433 158.233 126.715 158.233C127.165 158.233 127.529 158.148 127.807 157.979C128.084 157.81 128.223 157.55 128.223 157.199C128.223 156.952 128.149 156.755 128.002 156.608C127.859 156.456 127.635 156.346 127.332 156.276L125.941 155.932C125.399 155.802 124.966 155.598 124.641 155.321C124.316 155.044 124.154 154.656 124.154 154.157C124.149 153.763 124.242 153.416 124.433 153.117C124.624 152.818 124.91 152.582 125.291 152.409C125.672 152.236 126.147 152.149 126.715 152.149C127.443 152.149 128.03 152.314 128.476 152.643C128.927 152.968 129.161 153.447 129.178 154.079H128.119C128.075 153.759 127.93 153.505 127.683 153.319C127.44 153.128 127.113 153.033 126.702 153.033C126.273 153.033 125.924 153.12 125.655 153.293C125.386 153.462 125.252 153.726 125.252 154.086C125.252 154.324 125.347 154.513 125.538 154.651C125.729 154.786 126.01 154.898 126.383 154.989L127.729 155.328C128.041 155.41 128.296 155.518 128.496 155.652C128.699 155.787 128.86 155.936 128.977 156.101C129.098 156.266 129.182 156.439 129.23 156.621C129.282 156.799 129.308 156.97 129.308 157.134C129.308 157.546 129.204 157.901 128.996 158.2C128.792 158.495 128.498 158.725 128.112 158.889C127.731 159.05 127.267 159.13 126.721 159.13ZM133.159 159.13C132.691 159.13 132.256 159.059 131.853 158.915C131.454 158.768 131.122 158.541 130.858 158.233C130.594 157.921 130.427 157.524 130.358 157.043H131.45C131.51 157.308 131.619 157.529 131.775 157.706C131.935 157.88 132.134 158.012 132.373 158.103C132.611 158.19 132.871 158.233 133.153 158.233C133.603 158.233 133.967 158.148 134.245 157.979C134.522 157.81 134.661 157.55 134.661 157.199C134.661 156.952 134.587 156.755 134.44 156.608C134.297 156.456 134.073 156.346 133.77 156.276L132.379 155.932C131.837 155.802 131.404 155.598 131.079 155.321C130.754 155.044 130.592 154.656 130.592 154.157C130.587 153.763 130.68 153.416 130.871 153.117C131.062 152.818 131.348 152.582 131.729 152.409C132.11 152.236 132.585 152.149 133.153 152.149C133.881 152.149 134.468 152.314 134.914 152.643C135.365 152.968 135.599 153.447 135.616 154.079H134.557C134.513 153.759 134.368 153.505 134.121 153.319C133.878 153.128 133.551 153.033 133.14 153.033C132.711 153.033 132.362 153.12 132.093 153.293C131.824 153.462 131.69 153.726 131.69 154.086C131.69 154.324 131.785 154.513 131.976 154.651C132.167 154.786 132.448 154.898 132.821 154.989L134.167 155.328C134.479 155.41 134.734 155.518 134.934 155.652C135.137 155.787 135.298 155.936 135.415 156.101C135.536 156.266 135.62 156.439 135.668 156.621C135.72 156.799 135.746 156.97 135.746 157.134C135.746 157.546 135.642 157.901 135.434 158.2C135.23 158.495 134.936 158.725 134.55 158.889C134.169 159.05 133.705 159.13 133.159 159.13ZM141.122 152.279V153.156H139.49V159H138.281V153.156H136.864V152.279H138.281V151.239C138.281 150.706 138.418 150.301 138.691 150.023C138.964 149.742 139.371 149.601 139.913 149.601H141.18L141.187 150.452H140.179C139.906 150.452 139.72 150.526 139.62 150.673C139.521 150.821 139.471 151.044 139.471 151.343V152.279H141.122ZM144.977 159.13C144.626 159.126 144.295 159.076 143.983 158.98C143.675 158.881 143.402 158.736 143.164 158.545C142.925 158.354 142.737 158.118 142.598 157.836C142.464 157.55 142.397 157.219 142.397 156.842V152.279H143.599V156.718C143.599 157.156 143.734 157.511 144.002 157.784C144.275 158.057 144.685 158.194 145.231 158.194C145.725 158.194 146.121 158.066 146.42 157.81C146.724 157.55 146.875 157.165 146.875 156.653V152.279H148.071V159H147.116L146.992 157.713C146.91 158.051 146.769 158.324 146.57 158.532C146.375 158.74 146.139 158.894 145.861 158.993C145.588 159.089 145.294 159.134 144.977 159.13ZM151.632 159.085C151.268 159.085 150.973 159.035 150.748 158.935C150.527 158.835 150.356 158.701 150.235 158.532C150.118 158.363 150.037 158.17 149.994 157.953C149.955 157.732 149.936 157.505 149.936 157.271V149.341H151.119V157.154C151.119 157.492 151.184 157.745 151.314 157.914C151.448 158.083 151.634 158.177 151.873 158.194L152.237 158.2V158.98C152.137 159.011 152.033 159.035 151.925 159.052C151.816 159.074 151.719 159.085 151.632 159.085ZM155.214 159.085C154.85 159.085 154.555 159.035 154.33 158.935C154.109 158.835 153.937 158.701 153.816 158.532C153.699 158.363 153.619 158.17 153.576 157.953C153.537 157.732 153.517 157.505 153.517 157.271V149.341H154.7V157.154C154.7 157.492 154.765 157.745 154.895 157.914C155.029 158.083 155.216 158.177 155.454 158.194L155.818 158.2V158.98C155.718 159.011 155.614 159.035 155.506 159.052C155.398 159.074 155.3 159.085 155.214 159.085ZM157.698 161.145C157.304 161.145 157.033 161.117 156.886 161.061C156.738 161.004 156.665 160.976 156.665 160.976V160.196L157.347 160.209C157.599 160.218 157.807 160.2 157.971 160.157C158.136 160.114 158.268 160.055 158.368 159.982C158.467 159.908 158.543 159.826 158.595 159.735C158.652 159.644 158.697 159.557 158.732 159.475L158.966 158.837L156.34 152.279H157.555L159.538 157.466L161.507 152.279H162.684L159.85 159.507C159.676 159.932 159.481 160.263 159.265 160.502C159.052 160.74 158.814 160.907 158.55 161.002C158.29 161.097 158.006 161.145 157.698 161.145Z" fill="#36536B"/>
<circle opacity="0.25" cx="92" cy="69" r="28" fill="#BA4270"/>
<path d="M83 70.6963L87.5769 75.2732L100.85 62" stroke="#BA4270" stroke-width="3"/>
</g>
<g clip-path="url(#clip1_0_4948)">
<rect x="28" y="181" width="131" height="30" rx="15" fill="#BA4270"/>
<path d="M74.5736 192.047C74.6139 192.047 74.7257 192.047 74.9091 192.047C75.0961 192.047 75.3142 192.047 75.5636 192.047C75.8166 192.047 76.0677 192.049 76.3171 192.052C76.5701 192.052 76.7809 192.054 76.9496 192.058C77.9139 192.08 78.7004 192.252 79.3091 192.575C79.9177 192.898 80.3632 193.349 80.6456 193.928C80.9316 194.507 81.0746 195.193 81.0746 195.985C81.0746 196.81 80.9242 197.523 80.6236 198.124C80.3229 198.722 79.8627 199.184 79.2431 199.51C78.6271 199.837 77.8442 200 76.8946 200H74.5736V192.047ZM76.1906 193.345V198.702H76.9276C77.3822 198.702 77.7947 198.614 78.1651 198.438C78.5391 198.262 78.8379 197.974 79.0616 197.574C79.2852 197.175 79.3971 196.641 79.3971 195.974C79.3971 195.354 79.2981 194.852 79.1001 194.467C78.9021 194.078 78.6197 193.794 78.2531 193.614C77.8864 193.435 77.4519 193.345 76.9496 193.345H76.1906ZM83.8194 194.313V200H82.2849V194.313H83.8194ZM83.8359 192.052V193.499H82.2739V192.052H83.8359ZM87.4396 200.11C87.0436 200.11 86.6623 200.046 86.2956 199.917C85.9289 199.785 85.6191 199.58 85.3661 199.301C85.1131 199.019 84.9518 198.654 84.8821 198.207H86.2736C86.3213 198.409 86.4074 198.568 86.5321 198.685C86.6604 198.803 86.8053 198.887 86.9666 198.938C87.1279 198.986 87.2819 199.01 87.4286 199.01C87.7366 199.01 87.9841 198.962 88.1711 198.867C88.3618 198.768 88.4571 198.618 88.4571 198.416C88.4571 198.262 88.4003 198.139 88.2866 198.047C88.1766 197.956 87.9933 197.886 87.7366 197.838L86.7356 197.629C86.2333 197.523 85.8299 197.343 85.5256 197.09C85.2213 196.834 85.0654 196.471 85.0581 196.001C85.0581 195.66 85.1479 195.354 85.3276 195.083C85.5109 194.812 85.7804 194.597 86.1361 194.439C86.4918 194.282 86.9281 194.203 87.4451 194.203C88.1454 194.203 88.7046 194.357 89.1226 194.665C89.5443 194.973 89.7588 195.407 89.7661 195.968H88.4241C88.3838 195.748 88.2738 195.58 88.0941 195.462C87.9181 195.341 87.6963 195.281 87.4286 195.281C87.1499 195.281 86.9208 195.33 86.7411 195.429C86.5614 195.528 86.4716 195.679 86.4716 195.88C86.4716 196.031 86.5449 196.15 86.6916 196.238C86.8383 196.322 87.0656 196.396 87.3736 196.458L88.2976 196.667C88.6166 196.744 88.8751 196.85 89.0731 196.986C89.2748 197.118 89.4306 197.263 89.5406 197.42C89.6506 197.578 89.7258 197.738 89.7661 197.899C89.8101 198.057 89.8321 198.2 89.8321 198.328C89.8321 198.706 89.7313 199.028 89.5296 199.296C89.3279 199.56 89.0474 199.762 88.6881 199.901C88.3288 200.04 87.9126 200.11 87.4396 200.11ZM90.874 200V194.313H92.447V195.116C92.6194 194.867 92.8504 194.652 93.14 194.473C93.4334 194.293 93.8019 194.203 94.2455 194.203C94.4399 194.203 94.6379 194.238 94.8395 194.307C95.0412 194.377 95.23 194.48 95.406 194.615C95.5857 194.747 95.7305 194.914 95.8405 195.116C96.0239 194.856 96.264 194.639 96.561 194.467C96.8617 194.291 97.1954 194.203 97.562 194.203C97.7747 194.203 97.9892 194.238 98.2055 194.307C98.4255 194.377 98.6272 194.491 98.8105 194.648C98.9939 194.806 99.1405 195.017 99.2505 195.281C99.3642 195.541 99.421 195.864 99.421 196.249V200H97.815V196.447C97.815 196.22 97.7692 196.038 97.6775 195.902C97.5895 195.763 97.4759 195.664 97.3365 195.605C97.2009 195.543 97.056 195.512 96.902 195.512C96.759 195.512 96.6142 195.541 96.4675 195.6C96.3209 195.655 96.1962 195.745 96.0935 195.869C95.9909 195.994 95.9395 196.157 95.9395 196.359V200H94.339V196.304C94.339 196.132 94.2932 195.987 94.2015 195.869C94.1099 195.752 93.9944 195.664 93.855 195.605C93.7194 195.543 93.58 195.512 93.437 195.512C93.2904 195.512 93.1437 195.543 92.997 195.605C92.8504 195.664 92.7275 195.758 92.6285 195.886C92.5295 196.011 92.48 196.168 92.48 196.359V200H90.874ZM102.257 194.313V200H100.722V194.313H102.257ZM102.273 192.052V193.499H100.711V192.052H102.273ZM105.877 200.11C105.481 200.11 105.1 200.046 104.733 199.917C104.366 199.785 104.057 199.58 103.804 199.301C103.551 199.019 103.389 198.654 103.32 198.207H104.711C104.759 198.409 104.845 198.568 104.97 198.685C105.098 198.803 105.243 198.887 105.404 198.938C105.565 198.986 105.719 199.01 105.866 199.01C106.174 199.01 106.422 198.962 106.609 198.867C106.799 198.768 106.895 198.618 106.895 198.416C106.895 198.262 106.838 198.139 106.724 198.047C106.614 197.956 106.431 197.886 106.174 197.838L105.173 197.629C104.671 197.523 104.267 197.343 103.963 197.09C103.659 196.834 103.503 196.471 103.496 196.001C103.496 195.66 103.585 195.354 103.765 195.083C103.948 194.812 104.218 194.597 104.574 194.439C104.929 194.282 105.366 194.203 105.883 194.203C106.583 194.203 107.142 194.357 107.56 194.665C107.982 194.973 108.196 195.407 108.204 195.968H106.862C106.821 195.748 106.711 195.58 106.532 195.462C106.356 195.341 106.134 195.281 105.866 195.281C105.587 195.281 105.358 195.33 105.179 195.429C104.999 195.528 104.909 195.679 104.909 195.88C104.909 196.031 104.982 196.15 105.129 196.238C105.276 196.322 105.503 196.396 105.811 196.458L106.735 196.667C107.054 196.744 107.313 196.85 107.511 196.986C107.712 197.118 107.868 197.263 107.978 197.42C108.088 197.578 108.163 197.738 108.204 197.899C108.248 198.057 108.27 198.2 108.27 198.328C108.27 198.706 108.169 199.028 107.967 199.296C107.765 199.56 107.485 199.762 107.126 199.901C106.766 200.04 106.35 200.11 105.877 200.11ZM111.486 200.11C111.09 200.11 110.709 200.046 110.342 199.917C109.975 199.785 109.665 199.58 109.412 199.301C109.159 199.019 108.998 198.654 108.928 198.207H110.32C110.368 198.409 110.454 198.568 110.578 198.685C110.707 198.803 110.852 198.887 111.013 198.938C111.174 198.986 111.328 199.01 111.475 199.01C111.783 199.01 112.03 198.962 112.217 198.867C112.408 198.768 112.503 198.618 112.503 198.416C112.503 198.262 112.447 198.139 112.333 198.047C112.223 197.956 112.04 197.886 111.783 197.838L110.782 197.629C110.28 197.523 109.876 197.343 109.572 197.09C109.268 196.834 109.112 196.471 109.104 196.001C109.104 195.66 109.194 195.354 109.374 195.083C109.557 194.812 109.827 194.597 110.182 194.439C110.538 194.282 110.974 194.203 111.491 194.203C112.192 194.203 112.751 194.357 113.169 194.665C113.591 194.973 113.805 195.407 113.812 195.968H112.47C112.43 195.748 112.32 195.58 112.14 195.462C111.964 195.341 111.743 195.281 111.475 195.281C111.196 195.281 110.967 195.33 110.787 195.429C110.608 195.528 110.518 195.679 110.518 195.88C110.518 196.031 110.591 196.15 110.738 196.238C110.885 196.322 111.112 196.396 111.42 196.458L112.344 196.667C112.663 196.744 112.921 196.85 113.119 196.986C113.321 197.118 113.477 197.263 113.587 197.42C113.697 197.578 113.772 197.738 113.812 197.899C113.856 198.057 113.878 198.2 113.878 198.328C113.878 198.706 113.778 199.028 113.576 199.296C113.374 199.56 113.094 199.762 112.734 199.901C112.375 200.04 111.959 200.11 111.486 200.11Z" fill="#FBFCFE"/>
</g>
<defs>
<filter id="filter0_d_0_4948" x="0" y="0" width="206" height="221" filterUnits="userSpaceOnUse" color-interpolation-filters="sRGB">
<feFlood flood-opacity="0" result="BackgroundImageFix"/>
<feColorMatrix in="SourceAlpha" type="matrix" values="0 0 0 0 0 0 0 0 0 0 0 0 0 0 0 0 0 0 127 0" result="hardAlpha"/>
<feMorphology radius="10" operator="erode" in="SourceAlpha" result="effect1_dropShadow_0_4948"/>
<feOffset dx="10" dy="10"/>
<feGaussianBlur stdDeviation="12.5"/>
<feColorMatrix type="matrix" values="0 0 0 0 0.212302 0 0 0 0 0.32521 0 0 0 0 0.419299 0 0 0 0.25 0"/>
<feBlend mode="normal" in2="BackgroundImageFix" result="effect1_dropShadow_0_4948"/>
<feBlend mode="normal" in="SourceGraphic" in2="effect1_dropShadow_0_4948" result="shape"/>
</filter>
<clipPath id="clip0_0_4948">
<rect width="149" height="122" fill="white" transform="translate(19 41)"/>
</clipPath>
<clipPath id="clip1_0_4948">
<rect width="131" height="30" fill="white" transform="translate(28 181)"/>
</clipPath>
</defs>
</svg>
